<?xml version="1.0" standalone="no"?>
<!DOCTYPE svg PUBLIC "-//W3C//DTD SVG 20010904//EN"
 "http://www.w3.org/TR/2001/REC-SVG-20010904/DTD/svg10.dtd">
<svg version="1.0" xmlns="http://www.w3.org/2000/svg"
 width="256.000000pt" height="256.000000pt" viewBox="0 0 256.000000 256.000000"
 preserveAspectRatio="xMidYMid meet">

<g transform="translate(0.000000,256.000000) scale(0.100000,-0.100000)"
fill="#000000" stroke="none">
<path d="M1221 1762 c-38 -19 -71 -72 -71 -114 0 -26 -3 -28 -40 -28 l-40 0 0
-51 c0 -46 8 -66 71 -175 l70 -124 69 0 68 0 71 125 c62 109 71 131 71 175 l0
50 -39 0 c-37 0 -39 2 -46 38 -10 53 -34 89 -71 107 -42 20 -71 19 -113 -3z
m125 -44 c13 -13 26 -40 29 -60 l7 -38 -102 0 -103 0 6 38 c4 24 17 47 38 66
26 23 38 27 67 22 20 -3 46 -16 58 -28z m114 -161 c0 -22 -21 -68 -64 -142
l-63 -110 -53 0 -54 0 -63 108 c-44 76 -63 118 -63 143 l0 34 180 0 180 0 0
-33z"/>
<path d="M1249 1548 c-1 -2 -3 -42 -4 -90 l-2 -88 37 0 36 0 -2 83 c-1 45 -2
85 -3 90 -1 6 -59 11 -62 5z"/>
<path d="M670 1505 c0 -13 26 -15 173 -15 l172 0 130 -225 c71 -124 132 -225
135 -225 3 0 63 102 135 225 l130 225 172 0 c147 0 173 2 173 15 0 13 -27 15
-182 15 l-183 0 -120 -210 c-65 -116 -122 -210 -125 -210 -4 0 -51 78 -105
173 -54 94 -109 189 -122 210 l-23 37 -180 0 c-153 0 -180 -2 -180 -15z"/>
<path d="M730 1446 c0 -13 23 -16 132 -18 l132 -3 79 -138 79 -138 -36 -59
c-19 -33 -31 -60 -26 -60 5 0 25 27 45 61 l35 60 -88 152 -88 152 -132 3
c-112 2 -132 0 -132 -12z"/>
<path d="M1547 1423 c-13 -21 -54 -91 -91 -155 l-67 -116 31 -56 c30 -52 50
-77 50 -60 0 3 -14 31 -31 61 l-31 53 79 140 78 140 133 0 c111 0 132 2 132
15 0 13 -21 15 -130 15 l-130 0 -23 -37z"/>
<path d="M790 1383 c0 -9 23 -13 83 -13 l82 0 50 -87 c28 -47 52 -90 53 -95 2
-4 -30 -8 -72 -8 l-75 0 -41 -71 c-23 -39 -40 -73 -37 -76 3 -2 18 17 33 44
47 82 45 81 140 79 46 -2 84 -1 84 1 0 2 -29 55 -65 118 l-66 114 -84 3 c-63
2 -85 0 -85 -9z"/>
<path d="M1681 1391 l-83 -6 -64 -110 c-35 -60 -64 -112 -64 -116 0 -3 19 -5
43 -6 144 -1 132 3 172 -64 51 -84 55 -68 4 20 l-41 71 -74 0 c-41 0 -74 3
-74 6 0 3 23 46 52 95 l52 89 83 0 c67 0 83 3 83 15 0 8 -1 14 -2 13 -2 -1
-41 -4 -87 -7z"/>
<path d="M537 943 c-4 -3 -7 -42 -7 -85 0 -63 3 -78 15 -78 12 0 15 16 15 85
0 78 -5 96 -23 78z"/>
<path d="M574 939 c-3 -6 -1 -16 5 -22 6 -6 11 -39 11 -74 0 -49 3 -63 15 -63
12 0 15 14 15 65 0 37 4 65 10 65 6 0 10 9 10 20 0 15 -7 20 -29 20 -17 0 -33
-5 -37 -11z"/>
<path d="M700 865 c0 -69 3 -85 15 -85 10 0 15 10 15 28 0 21 7 32 25 40 20 9
25 19 25 46 0 37 -20 56 -59 56 -20 0 -21 -6 -21 -85z m50 30 c0 -8 -4 -15
-10 -15 -5 0 -10 7 -10 15 0 8 5 15 10 15 6 0 10 -7 10 -15z"/>
<path d="M797 943 c-4 -3 -7 -42 -7 -85 0 -63 3 -78 15 -78 10 0 15 11 15 35
0 19 5 35 10 35 6 0 10 -16 10 -35 0 -24 5 -35 15 -35 11 0 14 15 14 73 -1 39
-5 78 -11 85 -11 13 -50 16 -61 5z"/>
<path d="M896 934 c-18 -18 -22 -104 -6 -135 6 -11 21 -19 36 -19 32 0 47 38
41 104 -6 63 -37 85 -71 50z m31 -96 c-2 -18 -4 -6 -4 27 0 33 2 48 4 33 2
-15 2 -42 0 -60z"/>
<path d="M1030 865 c0 -69 3 -85 15 -85 10 0 15 11 15 35 0 24 5 35 15 35 8 0
15 9 15 20 0 11 -7 20 -15 20 -8 0 -15 5 -15 10 0 6 7 10 15 10 8 0 15 9 15
20 0 16 -7 20 -30 20 l-30 0 0 -85z"/>
<path d="M1116 934 c-11 -10 -16 -34 -16 -73 0 -64 13 -85 52 -79 21 3 23 9
26 71 4 89 -21 122 -62 81z m31 -96 c-2 -18 -4 -6 -4 27 0 33 2 48 4 33 2 -15
2 -42 0 -60z"/>
<path d="M1200 865 c0 -67 3 -85 14 -85 10 0 16 13 19 38 l4 37 1 -37 c2 -30
6 -38 21 -38 18 0 20 7 19 73 -1 82 -9 97 -49 97 l-29 0 0 -85z m50 35 c0 -5
-4 -10 -10 -10 -5 0 -10 5 -10 10 0 6 5 10 10 10 6 0 10 -4 10 -10z"/>
<path d="M1340 865 l0 -85 35 0 c24 0 35 5 35 15 0 8 -9 15 -20 15 -13 0 -20
7 -20 20 0 11 7 20 15 20 8 0 15 7 15 15 0 8 -7 15 -15 15 -8 0 -15 7 -15 15
0 8 7 15 15 15 8 0 15 9 15 20 0 16 -7 20 -30 20 l-30 0 0 -85z"/>
<path d="M1419 946 c-3 -3 -1 -41 4 -86 9 -74 12 -80 33 -80 20 0 23 6 29 58
11 89 11 104 -2 109 -7 3 -15 -14 -20 -44 l-8 -48 -5 44 c-4 40 -18 60 -31 47z"/>
<path d="M1517 944 c-4 -4 -7 -43 -7 -86 l0 -78 35 0 c39 0 50 24 15 33 -11 3
-20 10 -20 17 0 7 9 14 20 17 11 3 20 11 20 18 0 7 -9 15 -20 18 -26 7 -26 23
1 30 12 3 19 12 17 19 -5 14 -50 23 -61 12z"/>
<path d="M1590 865 c0 -69 3 -85 15 -85 10 0 15 11 15 35 0 19 5 35 10 35 6 0
10 -16 10 -35 0 -24 5 -35 15 -35 11 0 14 15 14 73 -1 81 -9 97 -50 97 l-29 0
0 -85z m50 35 c0 -5 -4 -10 -10 -10 -5 0 -10 5 -10 10 0 6 5 10 10 10 6 0 10
-4 10 -10z"/>
<path d="M1684 923 c3 -16 9 -54 13 -85 3 -34 11 -58 17 -58 7 0 18 28 25 63
7 34 15 72 18 85 4 15 1 22 -10 22 -8 0 -18 -10 -22 -22 l-8 -23 -4 23 c-2 12
-11 22 -20 22 -12 0 -14 -7 -9 -27z"/>
<path d="M1788 939 c-14 -8 -18 -23 -18 -72 0 -75 8 -90 46 -85 29 3 29 4 32
73 2 57 0 72 -14 82 -21 15 -24 15 -46 2z m32 -79 c0 -27 -4 -50 -10 -50 -5 0
-10 23 -10 50 0 28 5 50 10 50 6 0 10 -22 10 -50z"/>
<path d="M1870 865 c0 -67 3 -85 14 -85 8 0 17 12 19 28 l4 27 2 -27 c1 -21 6
-28 21 -28 20 0 21 5 18 82 -2 54 -7 83 -15 86 -8 2 -13 -7 -14 -25 l-1 -28
-11 28 c-6 15 -17 27 -24 27 -10 0 -13 -22 -13 -85z"/>
<path d="M1967 944 c-4 -4 -7 -43 -7 -86 l0 -78 35 0 c24 0 35 5 35 15 0 8 -7
15 -15 15 -8 0 -15 9 -15 20 0 11 7 20 15 20 8 0 15 7 15 15 0 8 -7 15 -15 15
-8 0 -15 7 -15 15 0 8 7 15 16 15 26 0 11 35 -16 38 -14 2 -29 0 -33 -4z"/>
<path d="M835 729 c-4 -6 -5 -12 -2 -15 2 -3 7 2 10 11 7 17 1 20 -8 4z"/>
<path d="M882 720 c0 -14 2 -19 5 -12 2 6 2 18 0 25 -3 6 -5 1 -5 -13z"/>
<path d="M1525 729 c-4 -6 -5 -12 -2 -15 2 -3 7 2 10 11 7 17 1 20 -8 4z"/>
</g>
</svg>
